<svg width="24" height="24" viewBox="0 0 24 24" fill="none" xmlns="http://www.w3.org/2000/svg">
<path fill-rule="evenodd" clip-rule="evenodd" d="M21.1 11.9999C21.1 12.4693 20.7195 12.8499 20.25 12.8499L3.75004 12.8499C3.28059 12.8499 2.90004 12.4693 2.90004 11.9999C2.90004 11.5304 3.28059 11.1499 3.75004 11.1499L20.25 11.1499C20.7195 11.1499 21.1 11.5304 21.1 11.9999Z" fill="#272830"/>
<path fill-rule="evenodd" clip-rule="evenodd" d="M11.1011 19.3509C10.7691 19.6828 10.2309 19.6828 9.899 19.3509L3.149 12.6009C2.81705 12.2689 2.81705 11.7308 3.149 11.3988L9.899 4.64881C10.2309 4.31687 10.7691 4.31687 11.1011 4.64881C11.433 4.98076 11.433 5.51895 11.1011 5.85089L4.95212 11.9999L11.1011 18.1488C11.433 18.4808 11.433 19.0189 11.1011 19.3509Z" fill="#272830"/>
</svg>
